<svg xmlns="http://www.w3.org/2000/svg"  viewBox="0 0 48 48" width="48px" height="48px" baseProfile="basic"><polygon fill="#f5bc00" points="44.036,25.066 34.25,19.75 34.25,30.625"/><path fill="#f55376" d="M34.841,11.508c-0.357,0-0.701,0.049-1.035,0.125c0.056-0.346,0.106-0.697,0.106-1.06	c0-3.613-2.913-6.542-6.506-6.542c-3.022,0-5.539,2.082-6.27,4.89c-0.816-0.708-1.862-1.151-3.024-1.151	c-2.567,0-4.647,2.092-4.647,4.673s2.08,4.673,4.647,4.673c1.818,0,3.377-1.062,4.139-2.591c1.19,1.565,3.045,2.591,5.154,2.591	c1.013,0,1.959-0.252,2.814-0.669c0.141,2.456,2.145,4.408,4.621,4.408c2.567,0,4.647-2.092,4.647-4.673	S37.408,11.508,34.841,11.508z"/><ellipse cx="25.028" cy="22.55" fill="#3dd9eb" rx="10.957" ry="11.055"/><polygon fill="#3dd9eb" points="26.854,22.55 35.984,22.55 35.929,44 26.798,44"/><polygon fill="#3dd9eb" points="26.912,44 26.969,20.708 15.031,18.047 2,44.016"/><rect width="2.828" height="2.828" x="25.461" y="23.586" fill="#6c19ff" transform="rotate(-45.001 26.875 25)"/><path fill="#6c19ff" d="M20.875,21l2-2l6,6l-2,2L20.875,21z"/><path fill="#6c19ff" d="M20.875,25l6-6l2,2l-6,6L20.875,25z"/><rect width="2.828" height="2.828" x="23.461" y="21.586" fill="#2100c4" transform="rotate(-45.001 24.875 23)"/></svg>